<mxfile host="app.diagrams.net" agent="Mozilla/5.0 (Windows NT 10.0; Win64; x64) AppleWebKit/537.36 (KHTML, like Gecko) Chrome/135.0.0.0 Safari/537.36" version="26.2.12">
  <diagram name="Página-1" id="nKbjfMKK_jLA33uzb_g9">
    <mxGraphModel dx="1228" dy="701" grid="1" gridSize="10" guides="1" tooltips="1" connect="1" arrows="1" fold="1" page="1" pageScale="1" pageWidth="1200" pageHeight="1600" math="0" shadow="0">
      <root>
        <mxCell id="0" />
        <mxCell id="1" parent="0" />
        <mxCell id="ZriuE2fvEDxk47T1wIl6-88" style="edgeStyle=orthogonalEdgeStyle;rounded=0;orthogonalLoop=1;jettySize=auto;html=1;endArrow=ERzeroToOne;startFill=0;endFill=0;startArrow=ERmandOne;" parent="1" source="ZriuE2fvEDxk47T1wIl6-1" target="ZriuE2fvEDxk47T1wIl6-58" edge="1">
          <mxGeometry relative="1" as="geometry">
            <Array as="points">
              <mxPoint x="1025" y="480" />
            </Array>
          </mxGeometry>
        </mxCell>
        <mxCell id="ZriuE2fvEDxk47T1wIl6-89" style="edgeStyle=orthogonalEdgeStyle;rounded=0;orthogonalLoop=1;jettySize=auto;html=1;endArrow=ERzeroToOne;startFill=0;endFill=0;startArrow=ERmandOne;" parent="1" source="ZriuE2fvEDxk47T1wIl6-1" target="ZriuE2fvEDxk47T1wIl6-20" edge="1">
          <mxGeometry relative="1" as="geometry">
            <Array as="points">
              <mxPoint x="120" y="550" />
            </Array>
          </mxGeometry>
        </mxCell>
        <mxCell id="ZriuE2fvEDxk47T1wIl6-1" value="usuario" style="shape=table;startSize=30;container=1;collapsible=1;childLayout=tableLayout;fixedRows=1;rowLines=0;fontStyle=1;align=center;resizeLast=1;html=1;" parent="1" vertex="1">
          <mxGeometry x="415" y="320" width="405" height="390" as="geometry">
            <mxRectangle x="365" y="140" width="80" height="30" as="alternateBounds" />
          </mxGeometry>
        </mxCell>
        <mxCell id="ZriuE2fvEDxk47T1wIl6-2" value="" style="shape=tableRow;horizontal=0;startSize=0;swimlaneHead=0;swimlaneBody=0;fillColor=none;collapsible=0;dropTarget=0;points=[[0,0.5],[1,0.5]];portConstraint=eastwest;top=0;left=0;right=0;bottom=1;" parent="ZriuE2fvEDxk47T1wIl6-1" vertex="1">
          <mxGeometry y="30" width="405" height="30" as="geometry" />
        </mxCell>
        <mxCell id="ZriuE2fvEDxk47T1wIl6-3" value="PK" style="shape=partialRectangle;connectable=0;fillColor=none;top=0;left=0;bottom=0;right=0;fontStyle=1;overflow=hidden;whiteSpace=wrap;html=1;" parent="ZriuE2fvEDxk47T1wIl6-2" vertex="1">
          <mxGeometry width="30" height="30" as="geometry">
            <mxRectangle width="30" height="30" as="alternateBounds" />
          </mxGeometry>
        </mxCell>
        <mxCell id="ZriuE2fvEDxk47T1wIl6-4" value="id_usuario" style="shape=partialRectangle;connectable=0;fillColor=none;top=0;left=0;bottom=0;right=0;align=left;spacingLeft=6;fontStyle=5;overflow=hidden;whiteSpace=wrap;html=1;" parent="ZriuE2fvEDxk47T1wIl6-2" vertex="1">
          <mxGeometry x="30" width="375" height="30" as="geometry">
            <mxRectangle width="375" height="30" as="alternateBounds" />
          </mxGeometry>
        </mxCell>
        <mxCell id="ZriuE2fvEDxk47T1wIl6-5" value="" style="shape=tableRow;horizontal=0;startSize=0;swimlaneHead=0;swimlaneBody=0;fillColor=none;collapsible=0;dropTarget=0;points=[[0,0.5],[1,0.5]];portConstraint=eastwest;top=0;left=0;right=0;bottom=0;" parent="ZriuE2fvEDxk47T1wIl6-1" vertex="1">
          <mxGeometry y="60" width="405" height="30" as="geometry" />
        </mxCell>
        <mxCell id="ZriuE2fvEDxk47T1wIl6-6" value="" style="shape=partialRectangle;connectable=0;fillColor=none;top=0;left=0;bottom=0;right=0;editable=1;overflow=hidden;whiteSpace=wrap;html=1;" parent="ZriuE2fvEDxk47T1wIl6-5" vertex="1">
          <mxGeometry width="30" height="30" as="geometry">
            <mxRectangle width="30" height="30" as="alternateBounds" />
          </mxGeometry>
        </mxCell>
        <mxCell id="ZriuE2fvEDxk47T1wIl6-7" value="nome VARCHAR(100) NOT NULL" style="shape=partialRectangle;connectable=0;fillColor=none;top=0;left=0;bottom=0;right=0;align=left;spacingLeft=6;overflow=hidden;whiteSpace=wrap;html=1;" parent="ZriuE2fvEDxk47T1wIl6-5" vertex="1">
          <mxGeometry x="30" width="375" height="30" as="geometry">
            <mxRectangle width="375" height="30" as="alternateBounds" />
          </mxGeometry>
        </mxCell>
        <mxCell id="TafMJiz-0NFogvrLmb69-7" value="" style="shape=tableRow;horizontal=0;startSize=0;swimlaneHead=0;swimlaneBody=0;fillColor=none;collapsible=0;dropTarget=0;points=[[0,0.5],[1,0.5]];portConstraint=eastwest;top=0;left=0;right=0;bottom=0;" parent="ZriuE2fvEDxk47T1wIl6-1" vertex="1">
          <mxGeometry y="90" width="405" height="30" as="geometry" />
        </mxCell>
        <mxCell id="TafMJiz-0NFogvrLmb69-8" value="" style="shape=partialRectangle;connectable=0;fillColor=none;top=0;left=0;bottom=0;right=0;editable=1;overflow=hidden;" parent="TafMJiz-0NFogvrLmb69-7" vertex="1">
          <mxGeometry width="30" height="30" as="geometry">
            <mxRectangle width="30" height="30" as="alternateBounds" />
          </mxGeometry>
        </mxCell>
        <mxCell id="TafMJiz-0NFogvrLmb69-9" value="sobrenome VARCHAR(150) NOT NULL" style="shape=partialRectangle;connectable=0;fillColor=none;top=0;left=0;bottom=0;right=0;align=left;spacingLeft=6;overflow=hidden;" parent="TafMJiz-0NFogvrLmb69-7" vertex="1">
          <mxGeometry x="30" width="375" height="30" as="geometry">
            <mxRectangle width="375" height="30" as="alternateBounds" />
          </mxGeometry>
        </mxCell>
        <mxCell id="ZriuE2fvEDxk47T1wIl6-8" value="" style="shape=tableRow;horizontal=0;startSize=0;swimlaneHead=0;swimlaneBody=0;fillColor=none;collapsible=0;dropTarget=0;points=[[0,0.5],[1,0.5]];portConstraint=eastwest;top=0;left=0;right=0;bottom=0;" parent="ZriuE2fvEDxk47T1wIl6-1" vertex="1">
          <mxGeometry y="120" width="405" height="30" as="geometry" />
        </mxCell>
        <mxCell id="ZriuE2fvEDxk47T1wIl6-9" value="" style="shape=partialRectangle;connectable=0;fillColor=none;top=0;left=0;bottom=0;right=0;editable=1;overflow=hidden;whiteSpace=wrap;html=1;" parent="ZriuE2fvEDxk47T1wIl6-8" vertex="1">
          <mxGeometry width="30" height="30" as="geometry">
            <mxRectangle width="30" height="30" as="alternateBounds" />
          </mxGeometry>
        </mxCell>
        <mxCell id="ZriuE2fvEDxk47T1wIl6-10" value="email VARCHAR(150) NOT NULL" style="shape=partialRectangle;connectable=0;fillColor=none;top=0;left=0;bottom=0;right=0;align=left;spacingLeft=6;overflow=hidden;whiteSpace=wrap;html=1;" parent="ZriuE2fvEDxk47T1wIl6-8" vertex="1">
          <mxGeometry x="30" width="375" height="30" as="geometry">
            <mxRectangle width="375" height="30" as="alternateBounds" />
          </mxGeometry>
        </mxCell>
        <mxCell id="ZriuE2fvEDxk47T1wIl6-11" value="" style="shape=tableRow;horizontal=0;startSize=0;swimlaneHead=0;swimlaneBody=0;fillColor=none;collapsible=0;dropTarget=0;points=[[0,0.5],[1,0.5]];portConstraint=eastwest;top=0;left=0;right=0;bottom=0;" parent="ZriuE2fvEDxk47T1wIl6-1" vertex="1">
          <mxGeometry y="150" width="405" height="30" as="geometry" />
        </mxCell>
        <mxCell id="ZriuE2fvEDxk47T1wIl6-12" value="" style="shape=partialRectangle;connectable=0;fillColor=none;top=0;left=0;bottom=0;right=0;editable=1;overflow=hidden;whiteSpace=wrap;html=1;" parent="ZriuE2fvEDxk47T1wIl6-11" vertex="1">
          <mxGeometry width="30" height="30" as="geometry">
            <mxRectangle width="30" height="30" as="alternateBounds" />
          </mxGeometry>
        </mxCell>
        <mxCell id="ZriuE2fvEDxk47T1wIl6-13" value="senha VARCHAR(255) NOT NULL" style="shape=partialRectangle;connectable=0;fillColor=none;top=0;left=0;bottom=0;right=0;align=left;spacingLeft=6;overflow=hidden;whiteSpace=wrap;html=1;" parent="ZriuE2fvEDxk47T1wIl6-11" vertex="1">
          <mxGeometry x="30" width="375" height="30" as="geometry">
            <mxRectangle width="375" height="30" as="alternateBounds" />
          </mxGeometry>
        </mxCell>
        <mxCell id="ZriuE2fvEDxk47T1wIl6-14" value="" style="shape=tableRow;horizontal=0;startSize=0;swimlaneHead=0;swimlaneBody=0;fillColor=none;collapsible=0;dropTarget=0;points=[[0,0.5],[1,0.5]];portConstraint=eastwest;top=0;left=0;right=0;bottom=0;" parent="ZriuE2fvEDxk47T1wIl6-1" vertex="1">
          <mxGeometry y="180" width="405" height="30" as="geometry" />
        </mxCell>
        <mxCell id="ZriuE2fvEDxk47T1wIl6-15" value="" style="shape=partialRectangle;connectable=0;fillColor=none;top=0;left=0;bottom=0;right=0;editable=1;overflow=hidden;" parent="ZriuE2fvEDxk47T1wIl6-14" vertex="1">
          <mxGeometry width="30" height="30" as="geometry">
            <mxRectangle width="30" height="30" as="alternateBounds" />
          </mxGeometry>
        </mxCell>
        <mxCell id="ZriuE2fvEDxk47T1wIl6-16" value="nota_reputacao DECIMAL(3,2) NOT NULL" style="shape=partialRectangle;connectable=0;fillColor=none;top=0;left=0;bottom=0;right=0;align=left;spacingLeft=6;overflow=hidden;" parent="ZriuE2fvEDxk47T1wIl6-14" vertex="1">
          <mxGeometry x="30" width="375" height="30" as="geometry">
            <mxRectangle width="375" height="30" as="alternateBounds" />
          </mxGeometry>
        </mxCell>
        <mxCell id="ZriuE2fvEDxk47T1wIl6-17" value="" style="shape=tableRow;horizontal=0;startSize=0;swimlaneHead=0;swimlaneBody=0;fillColor=none;collapsible=0;dropTarget=0;points=[[0,0.5],[1,0.5]];portConstraint=eastwest;top=0;left=0;right=0;bottom=0;" parent="ZriuE2fvEDxk47T1wIl6-1" vertex="1">
          <mxGeometry y="210" width="405" height="30" as="geometry" />
        </mxCell>
        <mxCell id="ZriuE2fvEDxk47T1wIl6-18" value="" style="shape=partialRectangle;connectable=0;fillColor=none;top=0;left=0;bottom=0;right=0;editable=1;overflow=hidden;" parent="ZriuE2fvEDxk47T1wIl6-17" vertex="1">
          <mxGeometry width="30" height="30" as="geometry">
            <mxRectangle width="30" height="30" as="alternateBounds" />
          </mxGeometry>
        </mxCell>
        <mxCell id="ZriuE2fvEDxk47T1wIl6-19" value="tipo_perfil ENUM(&#39;administrador&#39;,&#39;solicitante&#39;,&#39;prestador&#39;) NOT NULL" style="shape=partialRectangle;connectable=0;fillColor=none;top=0;left=0;bottom=0;right=0;align=left;spacingLeft=6;overflow=hidden;" parent="ZriuE2fvEDxk47T1wIl6-17" vertex="1">
          <mxGeometry x="30" width="375" height="30" as="geometry">
            <mxRectangle width="375" height="30" as="alternateBounds" />
          </mxGeometry>
        </mxCell>
        <mxCell id="TafMJiz-0NFogvrLmb69-4" value="" style="shape=tableRow;horizontal=0;startSize=0;swimlaneHead=0;swimlaneBody=0;fillColor=none;collapsible=0;dropTarget=0;points=[[0,0.5],[1,0.5]];portConstraint=eastwest;top=0;left=0;right=0;bottom=0;" parent="ZriuE2fvEDxk47T1wIl6-1" vertex="1">
          <mxGeometry y="240" width="405" height="30" as="geometry" />
        </mxCell>
        <mxCell id="TafMJiz-0NFogvrLmb69-5" value="" style="shape=partialRectangle;connectable=0;fillColor=none;top=0;left=0;bottom=0;right=0;editable=1;overflow=hidden;" parent="TafMJiz-0NFogvrLmb69-4" vertex="1">
          <mxGeometry width="30" height="30" as="geometry">
            <mxRectangle width="30" height="30" as="alternateBounds" />
          </mxGeometry>
        </mxCell>
        <mxCell id="TafMJiz-0NFogvrLmb69-6" value="cpf VARCHAR(100) NOT NULL" style="shape=partialRectangle;connectable=0;fillColor=none;top=0;left=0;bottom=0;right=0;align=left;spacingLeft=6;overflow=hidden;" parent="TafMJiz-0NFogvrLmb69-4" vertex="1">
          <mxGeometry x="30" width="375" height="30" as="geometry">
            <mxRectangle width="375" height="30" as="alternateBounds" />
          </mxGeometry>
        </mxCell>
        <mxCell id="TafMJiz-0NFogvrLmb69-10" value="" style="shape=tableRow;horizontal=0;startSize=0;swimlaneHead=0;swimlaneBody=0;fillColor=none;collapsible=0;dropTarget=0;points=[[0,0.5],[1,0.5]];portConstraint=eastwest;top=0;left=0;right=0;bottom=0;" parent="ZriuE2fvEDxk47T1wIl6-1" vertex="1">
          <mxGeometry y="270" width="405" height="30" as="geometry" />
        </mxCell>
        <mxCell id="TafMJiz-0NFogvrLmb69-11" value="" style="shape=partialRectangle;connectable=0;fillColor=none;top=0;left=0;bottom=0;right=0;editable=1;overflow=hidden;" parent="TafMJiz-0NFogvrLmb69-10" vertex="1">
          <mxGeometry width="30" height="30" as="geometry">
            <mxRectangle width="30" height="30" as="alternateBounds" />
          </mxGeometry>
        </mxCell>
        <mxCell id="TafMJiz-0NFogvrLmb69-12" value="telefone VARCHAR(30) NOT NULL" style="shape=partialRectangle;connectable=0;fillColor=none;top=0;left=0;bottom=0;right=0;align=left;spacingLeft=6;overflow=hidden;" parent="TafMJiz-0NFogvrLmb69-10" vertex="1">
          <mxGeometry x="30" width="375" height="30" as="geometry">
            <mxRectangle width="375" height="30" as="alternateBounds" />
          </mxGeometry>
        </mxCell>
        <mxCell id="TafMJiz-0NFogvrLmb69-16" value="" style="shape=tableRow;horizontal=0;startSize=0;swimlaneHead=0;swimlaneBody=0;fillColor=none;collapsible=0;dropTarget=0;points=[[0,0.5],[1,0.5]];portConstraint=eastwest;top=0;left=0;right=0;bottom=0;" parent="ZriuE2fvEDxk47T1wIl6-1" vertex="1">
          <mxGeometry y="300" width="405" height="30" as="geometry" />
        </mxCell>
        <mxCell id="TafMJiz-0NFogvrLmb69-17" value="" style="shape=partialRectangle;connectable=0;fillColor=none;top=0;left=0;bottom=0;right=0;editable=1;overflow=hidden;" parent="TafMJiz-0NFogvrLmb69-16" vertex="1">
          <mxGeometry width="30" height="30" as="geometry">
            <mxRectangle width="30" height="30" as="alternateBounds" />
          </mxGeometry>
        </mxCell>
        <mxCell id="TafMJiz-0NFogvrLmb69-18" value="nacionalidade VARCHAR(50) NOT NULL" style="shape=partialRectangle;connectable=0;fillColor=none;top=0;left=0;bottom=0;right=0;align=left;spacingLeft=6;overflow=hidden;" parent="TafMJiz-0NFogvrLmb69-16" vertex="1">
          <mxGeometry x="30" width="375" height="30" as="geometry">
            <mxRectangle width="375" height="30" as="alternateBounds" />
          </mxGeometry>
        </mxCell>
        <mxCell id="TafMJiz-0NFogvrLmb69-19" value="" style="shape=tableRow;horizontal=0;startSize=0;swimlaneHead=0;swimlaneBody=0;fillColor=none;collapsible=0;dropTarget=0;points=[[0,0.5],[1,0.5]];portConstraint=eastwest;top=0;left=0;right=0;bottom=0;" parent="ZriuE2fvEDxk47T1wIl6-1" vertex="1">
          <mxGeometry y="330" width="405" height="30" as="geometry" />
        </mxCell>
        <mxCell id="TafMJiz-0NFogvrLmb69-20" value="" style="shape=partialRectangle;connectable=0;fillColor=none;top=0;left=0;bottom=0;right=0;editable=1;overflow=hidden;" parent="TafMJiz-0NFogvrLmb69-19" vertex="1">
          <mxGeometry width="30" height="30" as="geometry">
            <mxRectangle width="30" height="30" as="alternateBounds" />
          </mxGeometry>
        </mxCell>
        <mxCell id="TafMJiz-0NFogvrLmb69-21" value="data_nascimento DATE NOT NULL" style="shape=partialRectangle;connectable=0;fillColor=none;top=0;left=0;bottom=0;right=0;align=left;spacingLeft=6;overflow=hidden;" parent="TafMJiz-0NFogvrLmb69-19" vertex="1">
          <mxGeometry x="30" width="375" height="30" as="geometry">
            <mxRectangle width="375" height="30" as="alternateBounds" />
          </mxGeometry>
        </mxCell>
        <mxCell id="TafMJiz-0NFogvrLmb69-13" value="" style="shape=tableRow;horizontal=0;startSize=0;swimlaneHead=0;swimlaneBody=0;fillColor=none;collapsible=0;dropTarget=0;points=[[0,0.5],[1,0.5]];portConstraint=eastwest;top=0;left=0;right=0;bottom=0;" parent="ZriuE2fvEDxk47T1wIl6-1" vertex="1">
          <mxGeometry y="360" width="405" height="30" as="geometry" />
        </mxCell>
        <mxCell id="TafMJiz-0NFogvrLmb69-14" value="" style="shape=partialRectangle;connectable=0;fillColor=none;top=0;left=0;bottom=0;right=0;editable=1;overflow=hidden;" parent="TafMJiz-0NFogvrLmb69-13" vertex="1">
          <mxGeometry width="30" height="30" as="geometry">
            <mxRectangle width="30" height="30" as="alternateBounds" />
          </mxGeometry>
        </mxCell>
        <mxCell id="TafMJiz-0NFogvrLmb69-15" value="genero ENUM(&#39;F&#39;,&#39;M&#39;,&#39;O&#39;) NOT NULL" style="shape=partialRectangle;connectable=0;fillColor=none;top=0;left=0;bottom=0;right=0;align=left;spacingLeft=6;overflow=hidden;" parent="TafMJiz-0NFogvrLmb69-13" vertex="1">
          <mxGeometry x="30" width="375" height="30" as="geometry">
            <mxRectangle width="375" height="30" as="alternateBounds" />
          </mxGeometry>
        </mxCell>
        <mxCell id="VBbevJY-ymsp9QnpKb6i-1" value="pagamento" style="shape=table;startSize=30;container=1;collapsible=1;childLayout=tableLayout;fixedRows=1;rowLines=0;fontStyle=1;align=center;resizeLast=1;html=1;" parent="1" vertex="1">
          <mxGeometry x="400" y="970" width="370" height="210" as="geometry" />
        </mxCell>
        <mxCell id="VBbevJY-ymsp9QnpKb6i-2" value="" style="shape=tableRow;horizontal=0;startSize=0;swimlaneHead=0;swimlaneBody=0;fillColor=none;collapsible=0;dropTarget=0;points=[[0,0.5],[1,0.5]];portConstraint=eastwest;top=0;left=0;right=0;bottom=1;" parent="VBbevJY-ymsp9QnpKb6i-1" vertex="1">
          <mxGeometry y="30" width="370" height="30" as="geometry" />
        </mxCell>
        <mxCell id="VBbevJY-ymsp9QnpKb6i-3" value="PK" style="shape=partialRectangle;connectable=0;fillColor=none;top=0;left=0;bottom=0;right=0;fontStyle=1;overflow=hidden;whiteSpace=wrap;html=1;" parent="VBbevJY-ymsp9QnpKb6i-2" vertex="1">
          <mxGeometry width="30" height="30" as="geometry">
            <mxRectangle width="30" height="30" as="alternateBounds" />
          </mxGeometry>
        </mxCell>
        <mxCell id="VBbevJY-ymsp9QnpKb6i-4" value="id pagamento" style="shape=partialRectangle;connectable=0;fillColor=none;top=0;left=0;bottom=0;right=0;align=left;spacingLeft=6;fontStyle=5;overflow=hidden;whiteSpace=wrap;html=1;" parent="VBbevJY-ymsp9QnpKb6i-2" vertex="1">
          <mxGeometry x="30" width="340" height="30" as="geometry">
            <mxRectangle width="340" height="30" as="alternateBounds" />
          </mxGeometry>
        </mxCell>
        <mxCell id="VBbevJY-ymsp9QnpKb6i-5" value="" style="shape=tableRow;horizontal=0;startSize=0;swimlaneHead=0;swimlaneBody=0;fillColor=none;collapsible=0;dropTarget=0;points=[[0,0.5],[1,0.5]];portConstraint=eastwest;top=0;left=0;right=0;bottom=0;" parent="VBbevJY-ymsp9QnpKb6i-1" vertex="1">
          <mxGeometry y="60" width="370" height="30" as="geometry" />
        </mxCell>
        <mxCell id="VBbevJY-ymsp9QnpKb6i-6" value="" style="shape=partialRectangle;connectable=0;fillColor=none;top=0;left=0;bottom=0;right=0;editable=1;overflow=hidden;whiteSpace=wrap;html=1;" parent="VBbevJY-ymsp9QnpKb6i-5" vertex="1">
          <mxGeometry width="30" height="30" as="geometry">
            <mxRectangle width="30" height="30" as="alternateBounds" />
          </mxGeometry>
        </mxCell>
        <mxCell id="VBbevJY-ymsp9QnpKb6i-7" value="data_pagamento DATE NOT NULL" style="shape=partialRectangle;connectable=0;fillColor=none;top=0;left=0;bottom=0;right=0;align=left;spacingLeft=6;overflow=hidden;whiteSpace=wrap;html=1;" parent="VBbevJY-ymsp9QnpKb6i-5" vertex="1">
          <mxGeometry x="30" width="340" height="30" as="geometry">
            <mxRectangle width="340" height="30" as="alternateBounds" />
          </mxGeometry>
        </mxCell>
        <mxCell id="VBbevJY-ymsp9QnpKb6i-8" value="" style="shape=tableRow;horizontal=0;startSize=0;swimlaneHead=0;swimlaneBody=0;fillColor=none;collapsible=0;dropTarget=0;points=[[0,0.5],[1,0.5]];portConstraint=eastwest;top=0;left=0;right=0;bottom=0;" parent="VBbevJY-ymsp9QnpKb6i-1" vertex="1">
          <mxGeometry y="90" width="370" height="30" as="geometry" />
        </mxCell>
        <mxCell id="VBbevJY-ymsp9QnpKb6i-9" value="" style="shape=partialRectangle;connectable=0;fillColor=none;top=0;left=0;bottom=0;right=0;editable=1;overflow=hidden;whiteSpace=wrap;html=1;" parent="VBbevJY-ymsp9QnpKb6i-8" vertex="1">
          <mxGeometry width="30" height="30" as="geometry">
            <mxRectangle width="30" height="30" as="alternateBounds" />
          </mxGeometry>
        </mxCell>
        <mxCell id="VBbevJY-ymsp9QnpKb6i-10" value="status_pagamento ENUM(&#39;pago&#39;,&#39;pendente&#39;) NOT NULL" style="shape=partialRectangle;connectable=0;fillColor=none;top=0;left=0;bottom=0;right=0;align=left;spacingLeft=6;overflow=hidden;whiteSpace=wrap;html=1;" parent="VBbevJY-ymsp9QnpKb6i-8" vertex="1">
          <mxGeometry x="30" width="340" height="30" as="geometry">
            <mxRectangle width="340" height="30" as="alternateBounds" />
          </mxGeometry>
        </mxCell>
        <mxCell id="VBbevJY-ymsp9QnpKb6i-11" value="" style="shape=tableRow;horizontal=0;startSize=0;swimlaneHead=0;swimlaneBody=0;fillColor=none;collapsible=0;dropTarget=0;points=[[0,0.5],[1,0.5]];portConstraint=eastwest;top=0;left=0;right=0;bottom=0;" parent="VBbevJY-ymsp9QnpKb6i-1" vertex="1">
          <mxGeometry y="120" width="370" height="30" as="geometry" />
        </mxCell>
        <mxCell id="VBbevJY-ymsp9QnpKb6i-12" value="" style="shape=partialRectangle;connectable=0;fillColor=none;top=0;left=0;bottom=0;right=0;editable=1;overflow=hidden;whiteSpace=wrap;html=1;" parent="VBbevJY-ymsp9QnpKb6i-11" vertex="1">
          <mxGeometry width="30" height="30" as="geometry">
            <mxRectangle width="30" height="30" as="alternateBounds" />
          </mxGeometry>
        </mxCell>
        <mxCell id="VBbevJY-ymsp9QnpKb6i-13" value="valor_pagamento FLOAT NOT NULL" style="shape=partialRectangle;connectable=0;fillColor=none;top=0;left=0;bottom=0;right=0;align=left;spacingLeft=6;overflow=hidden;whiteSpace=wrap;html=1;" parent="VBbevJY-ymsp9QnpKb6i-11" vertex="1">
          <mxGeometry x="30" width="340" height="30" as="geometry">
            <mxRectangle width="340" height="30" as="alternateBounds" />
          </mxGeometry>
        </mxCell>
        <mxCell id="VBbevJY-ymsp9QnpKb6i-29" value="" style="shape=tableRow;horizontal=0;startSize=0;swimlaneHead=0;swimlaneBody=0;fillColor=none;collapsible=0;dropTarget=0;points=[[0,0.5],[1,0.5]];portConstraint=eastwest;top=0;left=0;right=0;bottom=0;" parent="VBbevJY-ymsp9QnpKb6i-1" vertex="1">
          <mxGeometry y="150" width="370" height="30" as="geometry" />
        </mxCell>
        <mxCell id="VBbevJY-ymsp9QnpKb6i-30" value="FK" style="shape=partialRectangle;connectable=0;fillColor=none;top=0;left=0;bottom=0;right=0;fontStyle=0;overflow=hidden;whiteSpace=wrap;html=1;" parent="VBbevJY-ymsp9QnpKb6i-29" vertex="1">
          <mxGeometry width="30" height="30" as="geometry">
            <mxRectangle width="30" height="30" as="alternateBounds" />
          </mxGeometry>
        </mxCell>
        <mxCell id="VBbevJY-ymsp9QnpKb6i-31" value="id_solicitante" style="shape=partialRectangle;connectable=0;fillColor=none;top=0;left=0;bottom=0;right=0;align=left;spacingLeft=6;fontStyle=0;overflow=hidden;whiteSpace=wrap;html=1;" parent="VBbevJY-ymsp9QnpKb6i-29" vertex="1">
          <mxGeometry x="30" width="340" height="30" as="geometry">
            <mxRectangle width="340" height="30" as="alternateBounds" />
          </mxGeometry>
        </mxCell>
        <mxCell id="VBbevJY-ymsp9QnpKb6i-26" value="" style="shape=tableRow;horizontal=0;startSize=0;swimlaneHead=0;swimlaneBody=0;fillColor=none;collapsible=0;dropTarget=0;points=[[0,0.5],[1,0.5]];portConstraint=eastwest;top=0;left=0;right=0;bottom=0;" parent="VBbevJY-ymsp9QnpKb6i-1" vertex="1">
          <mxGeometry y="180" width="370" height="30" as="geometry" />
        </mxCell>
        <mxCell id="VBbevJY-ymsp9QnpKb6i-27" value="FK" style="shape=partialRectangle;connectable=0;fillColor=none;top=0;left=0;bottom=0;right=0;fontStyle=0;overflow=hidden;whiteSpace=wrap;html=1;" parent="VBbevJY-ymsp9QnpKb6i-26" vertex="1">
          <mxGeometry width="30" height="30" as="geometry">
            <mxRectangle width="30" height="30" as="alternateBounds" />
          </mxGeometry>
        </mxCell>
        <mxCell id="VBbevJY-ymsp9QnpKb6i-28" value="id_prestador" style="shape=partialRectangle;connectable=0;fillColor=none;top=0;left=0;bottom=0;right=0;align=left;spacingLeft=6;fontStyle=0;overflow=hidden;whiteSpace=wrap;html=1;" parent="VBbevJY-ymsp9QnpKb6i-26" vertex="1">
          <mxGeometry x="30" width="340" height="30" as="geometry">
            <mxRectangle width="340" height="30" as="alternateBounds" />
          </mxGeometry>
        </mxCell>
        <mxCell id="ZriuE2fvEDxk47T1wIl6-90" style="edgeStyle=orthogonalEdgeStyle;rounded=0;orthogonalLoop=1;jettySize=auto;html=1;startArrow=ERmandOne;startFill=0;endArrow=ERoneToMany;endFill=0;" parent="1" source="ZriuE2fvEDxk47T1wIl6-58" target="DzorAXnXF1hcaJ-7rGOe-1" edge="1">
          <mxGeometry relative="1" as="geometry">
            <Array as="points">
              <mxPoint x="890" y="850" />
            </Array>
          </mxGeometry>
        </mxCell>
        <mxCell id="ZriuE2fvEDxk47T1wIl6-99" style="edgeStyle=orthogonalEdgeStyle;rounded=0;orthogonalLoop=1;jettySize=auto;html=1;endArrow=ERoneToMany;endFill=0;startFill=0;startArrow=ERmandOne;" parent="1" source="ZriuE2fvEDxk47T1wIl6-58" target="VBbevJY-ymsp9QnpKb6i-1" edge="1">
          <mxGeometry relative="1" as="geometry">
            <Array as="points">
              <mxPoint x="1025" y="1080" />
            </Array>
          </mxGeometry>
        </mxCell>
        <mxCell id="ZriuE2fvEDxk47T1wIl6-101" style="edgeStyle=orthogonalEdgeStyle;rounded=0;orthogonalLoop=1;jettySize=auto;html=1;endArrow=ERoneToMany;endFill=0;startFill=0;startArrow=ERmandOne;" parent="1" source="ZriuE2fvEDxk47T1wIl6-58" target="nTdyRkKhcf-GtTSsgD9O-1" edge="1">
          <mxGeometry relative="1" as="geometry">
            <Array as="points">
              <mxPoint x="1130" y="1430" />
            </Array>
          </mxGeometry>
        </mxCell>
        <mxCell id="ZriuE2fvEDxk47T1wIl6-58" value="solicitante" style="shape=table;startSize=30;container=1;collapsible=1;childLayout=tableLayout;fixedRows=1;rowLines=0;fontStyle=1;align=center;resizeLast=1;html=1;" parent="1" vertex="1">
          <mxGeometry x="850" y="530" width="350" height="60" as="geometry" />
        </mxCell>
        <mxCell id="ZriuE2fvEDxk47T1wIl6-59" value="" style="shape=tableRow;horizontal=0;startSize=0;swimlaneHead=0;swimlaneBody=0;fillColor=none;collapsible=0;dropTarget=0;points=[[0,0.5],[1,0.5]];portConstraint=eastwest;top=0;left=0;right=0;bottom=1;" parent="ZriuE2fvEDxk47T1wIl6-58" vertex="1">
          <mxGeometry y="30" width="350" height="30" as="geometry" />
        </mxCell>
        <mxCell id="ZriuE2fvEDxk47T1wIl6-60" value="PK FK" style="shape=partialRectangle;connectable=0;fillColor=none;top=0;left=0;bottom=0;right=0;fontStyle=1;overflow=hidden;whiteSpace=wrap;html=1;" parent="ZriuE2fvEDxk47T1wIl6-59" vertex="1">
          <mxGeometry width="40" height="30" as="geometry">
            <mxRectangle width="40" height="30" as="alternateBounds" />
          </mxGeometry>
        </mxCell>
        <mxCell id="ZriuE2fvEDxk47T1wIl6-61" value="id_usuario" style="shape=partialRectangle;connectable=0;fillColor=none;top=0;left=0;bottom=0;right=0;align=left;spacingLeft=6;fontStyle=5;overflow=hidden;whiteSpace=wrap;html=1;" parent="ZriuE2fvEDxk47T1wIl6-59" vertex="1">
          <mxGeometry x="40" width="310" height="30" as="geometry">
            <mxRectangle width="310" height="30" as="alternateBounds" />
          </mxGeometry>
        </mxCell>
        <mxCell id="DzorAXnXF1hcaJ-7rGOe-1" value="Proposta" style="shape=table;startSize=30;container=1;collapsible=1;childLayout=tableLayout;fixedRows=1;rowLines=0;fontStyle=1;align=center;resizeLast=1;html=1;" parent="1" vertex="1">
          <mxGeometry x="480" y="730" width="225" height="210" as="geometry" />
        </mxCell>
        <mxCell id="DzorAXnXF1hcaJ-7rGOe-2" value="" style="shape=tableRow;horizontal=0;startSize=0;swimlaneHead=0;swimlaneBody=0;fillColor=none;collapsible=0;dropTarget=0;points=[[0,0.5],[1,0.5]];portConstraint=eastwest;top=0;left=0;right=0;bottom=1;" parent="DzorAXnXF1hcaJ-7rGOe-1" vertex="1">
          <mxGeometry y="30" width="225" height="30" as="geometry" />
        </mxCell>
        <mxCell id="DzorAXnXF1hcaJ-7rGOe-3" value="PK" style="shape=partialRectangle;connectable=0;fillColor=none;top=0;left=0;bottom=0;right=0;fontStyle=1;overflow=hidden;whiteSpace=wrap;html=1;" parent="DzorAXnXF1hcaJ-7rGOe-2" vertex="1">
          <mxGeometry width="30" height="30" as="geometry">
            <mxRectangle width="30" height="30" as="alternateBounds" />
          </mxGeometry>
        </mxCell>
        <mxCell id="DzorAXnXF1hcaJ-7rGOe-4" value="id proposta" style="shape=partialRectangle;connectable=0;fillColor=none;top=0;left=0;bottom=0;right=0;align=left;spacingLeft=6;fontStyle=5;overflow=hidden;whiteSpace=wrap;html=1;" parent="DzorAXnXF1hcaJ-7rGOe-2" vertex="1">
          <mxGeometry x="30" width="195" height="30" as="geometry">
            <mxRectangle width="195" height="30" as="alternateBounds" />
          </mxGeometry>
        </mxCell>
        <mxCell id="DzorAXnXF1hcaJ-7rGOe-5" value="" style="shape=tableRow;horizontal=0;startSize=0;swimlaneHead=0;swimlaneBody=0;fillColor=none;collapsible=0;dropTarget=0;points=[[0,0.5],[1,0.5]];portConstraint=eastwest;top=0;left=0;right=0;bottom=0;" parent="DzorAXnXF1hcaJ-7rGOe-1" vertex="1">
          <mxGeometry y="60" width="225" height="30" as="geometry" />
        </mxCell>
        <mxCell id="DzorAXnXF1hcaJ-7rGOe-6" value="" style="shape=partialRectangle;connectable=0;fillColor=none;top=0;left=0;bottom=0;right=0;editable=1;overflow=hidden;whiteSpace=wrap;html=1;" parent="DzorAXnXF1hcaJ-7rGOe-5" vertex="1">
          <mxGeometry width="30" height="30" as="geometry">
            <mxRectangle width="30" height="30" as="alternateBounds" />
          </mxGeometry>
        </mxCell>
        <mxCell id="DzorAXnXF1hcaJ-7rGOe-7" value="valor_proposta FLOAT NOT NULL" style="shape=partialRectangle;connectable=0;fillColor=none;top=0;left=0;bottom=0;right=0;align=left;spacingLeft=6;overflow=hidden;whiteSpace=wrap;html=1;" parent="DzorAXnXF1hcaJ-7rGOe-5" vertex="1">
          <mxGeometry x="30" width="195" height="30" as="geometry">
            <mxRectangle width="195" height="30" as="alternateBounds" />
          </mxGeometry>
        </mxCell>
        <mxCell id="TafMJiz-0NFogvrLmb69-66" value="" style="shape=tableRow;horizontal=0;startSize=0;swimlaneHead=0;swimlaneBody=0;fillColor=none;collapsible=0;dropTarget=0;points=[[0,0.5],[1,0.5]];portConstraint=eastwest;top=0;left=0;right=0;bottom=0;" parent="DzorAXnXF1hcaJ-7rGOe-1" vertex="1">
          <mxGeometry y="90" width="225" height="30" as="geometry" />
        </mxCell>
        <mxCell id="TafMJiz-0NFogvrLmb69-67" value="" style="shape=partialRectangle;connectable=0;fillColor=none;top=0;left=0;bottom=0;right=0;editable=1;overflow=hidden;" parent="TafMJiz-0NFogvrLmb69-66" vertex="1">
          <mxGeometry width="30" height="30" as="geometry">
            <mxRectangle width="30" height="30" as="alternateBounds" />
          </mxGeometry>
        </mxCell>
        <mxCell id="TafMJiz-0NFogvrLmb69-68" value="justificativa TEXT NOT NULL" style="shape=partialRectangle;connectable=0;fillColor=none;top=0;left=0;bottom=0;right=0;align=left;spacingLeft=6;overflow=hidden;" parent="TafMJiz-0NFogvrLmb69-66" vertex="1">
          <mxGeometry x="30" width="195" height="30" as="geometry">
            <mxRectangle width="195" height="30" as="alternateBounds" />
          </mxGeometry>
        </mxCell>
        <mxCell id="ZriuE2fvEDxk47T1wIl6-91" value="" style="shape=tableRow;horizontal=0;startSize=0;swimlaneHead=0;swimlaneBody=0;fillColor=none;collapsible=0;dropTarget=0;points=[[0,0.5],[1,0.5]];portConstraint=eastwest;top=0;left=0;right=0;bottom=0;" parent="DzorAXnXF1hcaJ-7rGOe-1" vertex="1">
          <mxGeometry y="120" width="225" height="30" as="geometry" />
        </mxCell>
        <mxCell id="ZriuE2fvEDxk47T1wIl6-92" value="FK" style="shape=partialRectangle;connectable=0;fillColor=none;top=0;left=0;bottom=0;right=0;fontStyle=0;overflow=hidden;whiteSpace=wrap;html=1;" parent="ZriuE2fvEDxk47T1wIl6-91" vertex="1">
          <mxGeometry width="30" height="30" as="geometry">
            <mxRectangle width="30" height="30" as="alternateBounds" />
          </mxGeometry>
        </mxCell>
        <mxCell id="ZriuE2fvEDxk47T1wIl6-93" value="id_solicitante" style="shape=partialRectangle;connectable=0;fillColor=none;top=0;left=0;bottom=0;right=0;align=left;spacingLeft=6;fontStyle=0;overflow=hidden;whiteSpace=wrap;html=1;" parent="ZriuE2fvEDxk47T1wIl6-91" vertex="1">
          <mxGeometry x="30" width="195" height="30" as="geometry">
            <mxRectangle width="195" height="30" as="alternateBounds" />
          </mxGeometry>
        </mxCell>
        <mxCell id="ZriuE2fvEDxk47T1wIl6-95" value="" style="shape=tableRow;horizontal=0;startSize=0;swimlaneHead=0;swimlaneBody=0;fillColor=none;collapsible=0;dropTarget=0;points=[[0,0.5],[1,0.5]];portConstraint=eastwest;top=0;left=0;right=0;bottom=0;" parent="DzorAXnXF1hcaJ-7rGOe-1" vertex="1">
          <mxGeometry y="150" width="225" height="30" as="geometry" />
        </mxCell>
        <mxCell id="ZriuE2fvEDxk47T1wIl6-96" value="FK" style="shape=partialRectangle;connectable=0;fillColor=none;top=0;left=0;bottom=0;right=0;fontStyle=0;overflow=hidden;whiteSpace=wrap;html=1;" parent="ZriuE2fvEDxk47T1wIl6-95" vertex="1">
          <mxGeometry width="30" height="30" as="geometry">
            <mxRectangle width="30" height="30" as="alternateBounds" />
          </mxGeometry>
        </mxCell>
        <mxCell id="ZriuE2fvEDxk47T1wIl6-97" value="id_prestador" style="shape=partialRectangle;connectable=0;fillColor=none;top=0;left=0;bottom=0;right=0;align=left;spacingLeft=6;fontStyle=0;overflow=hidden;whiteSpace=wrap;html=1;" parent="ZriuE2fvEDxk47T1wIl6-95" vertex="1">
          <mxGeometry x="30" width="195" height="30" as="geometry">
            <mxRectangle width="195" height="30" as="alternateBounds" />
          </mxGeometry>
        </mxCell>
        <mxCell id="VBbevJY-ymsp9QnpKb6i-20" value="" style="shape=tableRow;horizontal=0;startSize=0;swimlaneHead=0;swimlaneBody=0;fillColor=none;collapsible=0;dropTarget=0;points=[[0,0.5],[1,0.5]];portConstraint=eastwest;top=0;left=0;right=0;bottom=0;" parent="DzorAXnXF1hcaJ-7rGOe-1" vertex="1">
          <mxGeometry y="180" width="225" height="30" as="geometry" />
        </mxCell>
        <mxCell id="VBbevJY-ymsp9QnpKb6i-21" value="FK" style="shape=partialRectangle;connectable=0;fillColor=none;top=0;left=0;bottom=0;right=0;fontStyle=0;overflow=hidden;whiteSpace=wrap;html=1;" parent="VBbevJY-ymsp9QnpKb6i-20" vertex="1">
          <mxGeometry width="30" height="30" as="geometry">
            <mxRectangle width="30" height="30" as="alternateBounds" />
          </mxGeometry>
        </mxCell>
        <mxCell id="VBbevJY-ymsp9QnpKb6i-22" value="id_servico" style="shape=partialRectangle;connectable=0;fillColor=none;top=0;left=0;bottom=0;right=0;align=left;spacingLeft=6;fontStyle=0;overflow=hidden;whiteSpace=wrap;html=1;" parent="VBbevJY-ymsp9QnpKb6i-20" vertex="1">
          <mxGeometry x="30" width="195" height="30" as="geometry">
            <mxRectangle width="195" height="30" as="alternateBounds" />
          </mxGeometry>
        </mxCell>
        <mxCell id="nTdyRkKhcf-GtTSsgD9O-1" value="servico" style="shape=table;startSize=30;container=1;collapsible=1;childLayout=tableLayout;fixedRows=1;rowLines=0;fontStyle=1;align=center;resizeLast=1;html=1;" parent="1" vertex="1">
          <mxGeometry x="400" y="1210" width="330" height="340" as="geometry" />
        </mxCell>
        <mxCell id="nTdyRkKhcf-GtTSsgD9O-2" value="" style="shape=tableRow;horizontal=0;startSize=0;swimlaneHead=0;swimlaneBody=0;fillColor=none;collapsible=0;dropTarget=0;points=[[0,0.5],[1,0.5]];portConstraint=eastwest;top=0;left=0;right=0;bottom=1;" parent="nTdyRkKhcf-GtTSsgD9O-1" vertex="1">
          <mxGeometry y="30" width="330" height="30" as="geometry" />
        </mxCell>
        <mxCell id="nTdyRkKhcf-GtTSsgD9O-3" value="PK" style="shape=partialRectangle;connectable=0;fillColor=none;top=0;left=0;bottom=0;right=0;fontStyle=1;overflow=hidden;whiteSpace=wrap;html=1;" parent="nTdyRkKhcf-GtTSsgD9O-2" vertex="1">
          <mxGeometry width="30" height="30" as="geometry">
            <mxRectangle width="30" height="30" as="alternateBounds" />
          </mxGeometry>
        </mxCell>
        <mxCell id="nTdyRkKhcf-GtTSsgD9O-4" value="id_servico" style="shape=partialRectangle;connectable=0;fillColor=none;top=0;left=0;bottom=0;right=0;align=left;spacingLeft=6;fontStyle=5;overflow=hidden;whiteSpace=wrap;html=1;" parent="nTdyRkKhcf-GtTSsgD9O-2" vertex="1">
          <mxGeometry x="30" width="300" height="30" as="geometry">
            <mxRectangle width="300" height="30" as="alternateBounds" />
          </mxGeometry>
        </mxCell>
        <mxCell id="nTdyRkKhcf-GtTSsgD9O-8" value="" style="shape=tableRow;horizontal=0;startSize=0;swimlaneHead=0;swimlaneBody=0;fillColor=none;collapsible=0;dropTarget=0;points=[[0,0.5],[1,0.5]];portConstraint=eastwest;top=0;left=0;right=0;bottom=0;" parent="nTdyRkKhcf-GtTSsgD9O-1" vertex="1">
          <mxGeometry y="60" width="330" height="30" as="geometry" />
        </mxCell>
        <mxCell id="nTdyRkKhcf-GtTSsgD9O-9" value="" style="shape=partialRectangle;connectable=0;fillColor=none;top=0;left=0;bottom=0;right=0;editable=1;overflow=hidden;whiteSpace=wrap;html=1;" parent="nTdyRkKhcf-GtTSsgD9O-8" vertex="1">
          <mxGeometry width="30" height="30" as="geometry">
            <mxRectangle width="30" height="30" as="alternateBounds" />
          </mxGeometry>
        </mxCell>
        <mxCell id="nTdyRkKhcf-GtTSsgD9O-10" value="descricao Text NOT NULL" style="shape=partialRectangle;connectable=0;fillColor=none;top=0;left=0;bottom=0;right=0;align=left;spacingLeft=6;overflow=hidden;whiteSpace=wrap;html=1;" parent="nTdyRkKhcf-GtTSsgD9O-8" vertex="1">
          <mxGeometry x="30" width="300" height="30" as="geometry">
            <mxRectangle width="300" height="30" as="alternateBounds" />
          </mxGeometry>
        </mxCell>
        <mxCell id="nTdyRkKhcf-GtTSsgD9O-11" value="" style="shape=tableRow;horizontal=0;startSize=0;swimlaneHead=0;swimlaneBody=0;fillColor=none;collapsible=0;dropTarget=0;points=[[0,0.5],[1,0.5]];portConstraint=eastwest;top=0;left=0;right=0;bottom=0;" parent="nTdyRkKhcf-GtTSsgD9O-1" vertex="1">
          <mxGeometry y="90" width="330" height="40" as="geometry" />
        </mxCell>
        <mxCell id="nTdyRkKhcf-GtTSsgD9O-12" value="" style="shape=partialRectangle;connectable=0;fillColor=none;top=0;left=0;bottom=0;right=0;editable=1;overflow=hidden;whiteSpace=wrap;html=1;" parent="nTdyRkKhcf-GtTSsgD9O-11" vertex="1">
          <mxGeometry width="30" height="40" as="geometry">
            <mxRectangle width="30" height="40" as="alternateBounds" />
          </mxGeometry>
        </mxCell>
        <mxCell id="nTdyRkKhcf-GtTSsgD9O-13" value="titulo VARCHAR(255) NOT NULL" style="shape=partialRectangle;connectable=0;fillColor=none;top=0;left=0;bottom=0;right=0;align=left;spacingLeft=6;overflow=hidden;whiteSpace=wrap;html=1;" parent="nTdyRkKhcf-GtTSsgD9O-11" vertex="1">
          <mxGeometry x="30" width="300" height="40" as="geometry">
            <mxRectangle width="300" height="40" as="alternateBounds" />
          </mxGeometry>
        </mxCell>
        <mxCell id="ZriuE2fvEDxk47T1wIl6-80" value="" style="shape=tableRow;horizontal=0;startSize=0;swimlaneHead=0;swimlaneBody=0;fillColor=none;collapsible=0;dropTarget=0;points=[[0,0.5],[1,0.5]];portConstraint=eastwest;top=0;left=0;right=0;bottom=0;" parent="nTdyRkKhcf-GtTSsgD9O-1" vertex="1">
          <mxGeometry y="130" width="330" height="30" as="geometry" />
        </mxCell>
        <mxCell id="ZriuE2fvEDxk47T1wIl6-81" value="" style="shape=partialRectangle;connectable=0;fillColor=none;top=0;left=0;bottom=0;right=0;editable=1;overflow=hidden;" parent="ZriuE2fvEDxk47T1wIl6-80" vertex="1">
          <mxGeometry width="30" height="30" as="geometry">
            <mxRectangle width="30" height="30" as="alternateBounds" />
          </mxGeometry>
        </mxCell>
        <mxCell id="ZriuE2fvEDxk47T1wIl6-82" value="img_servico VARCHAR(255) NOT NULL" style="shape=partialRectangle;connectable=0;fillColor=none;top=0;left=0;bottom=0;right=0;align=left;spacingLeft=6;overflow=hidden;" parent="ZriuE2fvEDxk47T1wIl6-80" vertex="1">
          <mxGeometry x="30" width="300" height="30" as="geometry">
            <mxRectangle width="300" height="30" as="alternateBounds" />
          </mxGeometry>
        </mxCell>
        <mxCell id="ZriuE2fvEDxk47T1wIl6-83" value="" style="shape=tableRow;horizontal=0;startSize=0;swimlaneHead=0;swimlaneBody=0;fillColor=none;collapsible=0;dropTarget=0;points=[[0,0.5],[1,0.5]];portConstraint=eastwest;top=0;left=0;right=0;bottom=0;" parent="nTdyRkKhcf-GtTSsgD9O-1" vertex="1">
          <mxGeometry y="160" width="330" height="30" as="geometry" />
        </mxCell>
        <mxCell id="ZriuE2fvEDxk47T1wIl6-84" value="" style="shape=partialRectangle;connectable=0;fillColor=none;top=0;left=0;bottom=0;right=0;editable=1;overflow=hidden;" parent="ZriuE2fvEDxk47T1wIl6-83" vertex="1">
          <mxGeometry width="30" height="30" as="geometry">
            <mxRectangle width="30" height="30" as="alternateBounds" />
          </mxGeometry>
        </mxCell>
        <mxCell id="ZriuE2fvEDxk47T1wIl6-85" value="categoria VARCHAR(255) NOT NULL" style="shape=partialRectangle;connectable=0;fillColor=none;top=0;left=0;bottom=0;right=0;align=left;spacingLeft=6;overflow=hidden;" parent="ZriuE2fvEDxk47T1wIl6-83" vertex="1">
          <mxGeometry x="30" width="300" height="30" as="geometry">
            <mxRectangle width="300" height="30" as="alternateBounds" />
          </mxGeometry>
        </mxCell>
        <mxCell id="ZriuE2fvEDxk47T1wIl6-77" value="" style="shape=tableRow;horizontal=0;startSize=0;swimlaneHead=0;swimlaneBody=0;fillColor=none;collapsible=0;dropTarget=0;points=[[0,0.5],[1,0.5]];portConstraint=eastwest;top=0;left=0;right=0;bottom=0;" parent="nTdyRkKhcf-GtTSsgD9O-1" vertex="1">
          <mxGeometry y="190" width="330" height="30" as="geometry" />
        </mxCell>
        <mxCell id="ZriuE2fvEDxk47T1wIl6-78" value="" style="shape=partialRectangle;connectable=0;fillColor=none;top=0;left=0;bottom=0;right=0;editable=1;overflow=hidden;" parent="ZriuE2fvEDxk47T1wIl6-77" vertex="1">
          <mxGeometry width="30" height="30" as="geometry">
            <mxRectangle width="30" height="30" as="alternateBounds" />
          </mxGeometry>
        </mxCell>
        <mxCell id="ZriuE2fvEDxk47T1wIl6-79" value="local_servico VACHAR(100) NOT NULL" style="shape=partialRectangle;connectable=0;fillColor=none;top=0;left=0;bottom=0;right=0;align=left;spacingLeft=6;overflow=hidden;" parent="ZriuE2fvEDxk47T1wIl6-77" vertex="1">
          <mxGeometry x="30" width="300" height="30" as="geometry">
            <mxRectangle width="300" height="30" as="alternateBounds" />
          </mxGeometry>
        </mxCell>
        <mxCell id="aJHi3XQJ-kC-JP0Q1PKm-1" value="" style="shape=tableRow;horizontal=0;startSize=0;swimlaneHead=0;swimlaneBody=0;fillColor=none;collapsible=0;dropTarget=0;points=[[0,0.5],[1,0.5]];portConstraint=eastwest;top=0;left=0;right=0;bottom=0;" parent="nTdyRkKhcf-GtTSsgD9O-1" vertex="1">
          <mxGeometry y="220" width="330" height="30" as="geometry" />
        </mxCell>
        <mxCell id="aJHi3XQJ-kC-JP0Q1PKm-2" value="" style="shape=partialRectangle;connectable=0;fillColor=none;top=0;left=0;bottom=0;right=0;editable=1;overflow=hidden;" parent="aJHi3XQJ-kC-JP0Q1PKm-1" vertex="1">
          <mxGeometry width="30" height="30" as="geometry">
            <mxRectangle width="30" height="30" as="alternateBounds" />
          </mxGeometry>
        </mxCell>
        <mxCell id="aJHi3XQJ-kC-JP0Q1PKm-3" value="status_servico ENUM(&#39;aceito&#39;,&#39;disponivel&#39;) NOT NULL" style="shape=partialRectangle;connectable=0;fillColor=none;top=0;left=0;bottom=0;right=0;align=left;spacingLeft=6;overflow=hidden;" parent="aJHi3XQJ-kC-JP0Q1PKm-1" vertex="1">
          <mxGeometry x="30" width="300" height="30" as="geometry">
            <mxRectangle width="300" height="30" as="alternateBounds" />
          </mxGeometry>
        </mxCell>
        <mxCell id="nTdyRkKhcf-GtTSsgD9O-16" value="" style="shape=tableRow;horizontal=0;startSize=0;swimlaneHead=0;swimlaneBody=0;fillColor=none;collapsible=0;dropTarget=0;points=[[0,0.5],[1,0.5]];portConstraint=eastwest;top=0;left=0;right=0;bottom=0;" parent="nTdyRkKhcf-GtTSsgD9O-1" vertex="1">
          <mxGeometry y="250" width="330" height="30" as="geometry" />
        </mxCell>
        <mxCell id="nTdyRkKhcf-GtTSsgD9O-17" value="" style="shape=partialRectangle;connectable=0;fillColor=none;top=0;left=0;bottom=0;right=0;editable=1;overflow=hidden;" parent="nTdyRkKhcf-GtTSsgD9O-16" vertex="1">
          <mxGeometry width="30" height="30" as="geometry">
            <mxRectangle width="30" height="30" as="alternateBounds" />
          </mxGeometry>
        </mxCell>
        <mxCell id="nTdyRkKhcf-GtTSsgD9O-18" value="preco DECIMAL(10,2) NOT NULL" style="shape=partialRectangle;connectable=0;fillColor=none;top=0;left=0;bottom=0;right=0;align=left;spacingLeft=6;overflow=hidden;" parent="nTdyRkKhcf-GtTSsgD9O-16" vertex="1">
          <mxGeometry x="30" width="300" height="30" as="geometry">
            <mxRectangle width="300" height="30" as="alternateBounds" />
          </mxGeometry>
        </mxCell>
        <mxCell id="VBbevJY-ymsp9QnpKb6i-14" value="" style="shape=tableRow;horizontal=0;startSize=0;swimlaneHead=0;swimlaneBody=0;fillColor=none;collapsible=0;dropTarget=0;points=[[0,0.5],[1,0.5]];portConstraint=eastwest;top=0;left=0;right=0;bottom=0;" parent="nTdyRkKhcf-GtTSsgD9O-1" vertex="1">
          <mxGeometry y="280" width="330" height="30" as="geometry" />
        </mxCell>
        <mxCell id="VBbevJY-ymsp9QnpKb6i-15" value="FK" style="shape=partialRectangle;connectable=0;fillColor=none;top=0;left=0;bottom=0;right=0;fontStyle=0;overflow=hidden;whiteSpace=wrap;html=1;" parent="VBbevJY-ymsp9QnpKb6i-14" vertex="1">
          <mxGeometry width="30" height="30" as="geometry">
            <mxRectangle width="30" height="30" as="alternateBounds" />
          </mxGeometry>
        </mxCell>
        <mxCell id="VBbevJY-ymsp9QnpKb6i-16" value="prestador_id" style="shape=partialRectangle;connectable=0;fillColor=none;top=0;left=0;bottom=0;right=0;align=left;spacingLeft=6;fontStyle=0;overflow=hidden;whiteSpace=wrap;html=1;" parent="VBbevJY-ymsp9QnpKb6i-14" vertex="1">
          <mxGeometry x="30" width="300" height="30" as="geometry">
            <mxRectangle width="300" height="30" as="alternateBounds" />
          </mxGeometry>
        </mxCell>
        <mxCell id="VBbevJY-ymsp9QnpKb6i-17" value="" style="shape=tableRow;horizontal=0;startSize=0;swimlaneHead=0;swimlaneBody=0;fillColor=none;collapsible=0;dropTarget=0;points=[[0,0.5],[1,0.5]];portConstraint=eastwest;top=0;left=0;right=0;bottom=0;" parent="nTdyRkKhcf-GtTSsgD9O-1" vertex="1">
          <mxGeometry y="310" width="330" height="30" as="geometry" />
        </mxCell>
        <mxCell id="VBbevJY-ymsp9QnpKb6i-18" value="FK" style="shape=partialRectangle;connectable=0;fillColor=none;top=0;left=0;bottom=0;right=0;fontStyle=0;overflow=hidden;whiteSpace=wrap;html=1;" parent="VBbevJY-ymsp9QnpKb6i-17" vertex="1">
          <mxGeometry width="30" height="30" as="geometry">
            <mxRectangle width="30" height="30" as="alternateBounds" />
          </mxGeometry>
        </mxCell>
        <mxCell id="VBbevJY-ymsp9QnpKb6i-19" value="solicitante_id" style="shape=partialRectangle;connectable=0;fillColor=none;top=0;left=0;bottom=0;right=0;align=left;spacingLeft=6;fontStyle=0;overflow=hidden;whiteSpace=wrap;html=1;" parent="VBbevJY-ymsp9QnpKb6i-17" vertex="1">
          <mxGeometry x="30" width="300" height="30" as="geometry">
            <mxRectangle width="300" height="30" as="alternateBounds" />
          </mxGeometry>
        </mxCell>
        <mxCell id="ZriuE2fvEDxk47T1wIl6-98" style="edgeStyle=orthogonalEdgeStyle;rounded=0;orthogonalLoop=1;jettySize=auto;html=1;endArrow=ERoneToMany;endFill=0;startFill=0;startArrow=ERmandOne;" parent="1" source="ZriuE2fvEDxk47T1wIl6-20" target="VBbevJY-ymsp9QnpKb6i-1" edge="1">
          <mxGeometry relative="1" as="geometry">
            <Array as="points">
              <mxPoint x="140" y="1075" />
            </Array>
          </mxGeometry>
        </mxCell>
        <mxCell id="ZriuE2fvEDxk47T1wIl6-100" style="edgeStyle=orthogonalEdgeStyle;rounded=0;orthogonalLoop=1;jettySize=auto;html=1;endArrow=ERoneToMany;endFill=0;startFill=0;startArrow=ERmandOne;" parent="1" source="ZriuE2fvEDxk47T1wIl6-20" target="nTdyRkKhcf-GtTSsgD9O-1" edge="1">
          <mxGeometry relative="1" as="geometry">
            <Array as="points">
              <mxPoint x="50" y="1420" />
            </Array>
          </mxGeometry>
        </mxCell>
        <mxCell id="ZriuE2fvEDxk47T1wIl6-20" value="prestador" style="shape=table;startSize=30;container=1;collapsible=1;childLayout=tableLayout;fixedRows=1;rowLines=0;fontStyle=1;align=center;resizeLast=1;html=1;" parent="1" vertex="1">
          <mxGeometry x="20" y="710" width="380" height="180" as="geometry" />
        </mxCell>
        <mxCell id="ZriuE2fvEDxk47T1wIl6-21" value="" style="shape=tableRow;horizontal=0;startSize=0;swimlaneHead=0;swimlaneBody=0;fillColor=none;collapsible=0;dropTarget=0;points=[[0,0.5],[1,0.5]];portConstraint=eastwest;top=0;left=0;right=0;bottom=1;" parent="ZriuE2fvEDxk47T1wIl6-20" vertex="1">
          <mxGeometry y="30" width="380" height="30" as="geometry" />
        </mxCell>
        <mxCell id="ZriuE2fvEDxk47T1wIl6-22" value="PK FK" style="shape=partialRectangle;connectable=0;fillColor=none;top=0;left=0;bottom=0;right=0;fontStyle=1;overflow=hidden;whiteSpace=wrap;html=1;" parent="ZriuE2fvEDxk47T1wIl6-21" vertex="1">
          <mxGeometry width="40" height="30" as="geometry">
            <mxRectangle width="40" height="30" as="alternateBounds" />
          </mxGeometry>
        </mxCell>
        <mxCell id="ZriuE2fvEDxk47T1wIl6-23" value="id_usuario" style="shape=partialRectangle;connectable=0;fillColor=none;top=0;left=0;bottom=0;right=0;align=left;spacingLeft=6;fontStyle=5;overflow=hidden;whiteSpace=wrap;html=1;" parent="ZriuE2fvEDxk47T1wIl6-21" vertex="1">
          <mxGeometry x="40" width="340" height="30" as="geometry">
            <mxRectangle width="340" height="30" as="alternateBounds" />
          </mxGeometry>
        </mxCell>
        <mxCell id="ZriuE2fvEDxk47T1wIl6-24" value="" style="shape=tableRow;horizontal=0;startSize=0;swimlaneHead=0;swimlaneBody=0;fillColor=none;collapsible=0;dropTarget=0;points=[[0,0.5],[1,0.5]];portConstraint=eastwest;top=0;left=0;right=0;bottom=0;" parent="ZriuE2fvEDxk47T1wIl6-20" vertex="1">
          <mxGeometry y="60" width="380" height="30" as="geometry" />
        </mxCell>
        <mxCell id="ZriuE2fvEDxk47T1wIl6-25" value="" style="shape=partialRectangle;connectable=0;fillColor=none;top=0;left=0;bottom=0;right=0;editable=1;overflow=hidden;whiteSpace=wrap;html=1;" parent="ZriuE2fvEDxk47T1wIl6-24" vertex="1">
          <mxGeometry width="40" height="30" as="geometry">
            <mxRectangle width="40" height="30" as="alternateBounds" />
          </mxGeometry>
        </mxCell>
        <mxCell id="ZriuE2fvEDxk47T1wIl6-26" value="cnpj VARCHAR(14)&amp;nbsp;" style="shape=partialRectangle;connectable=0;fillColor=none;top=0;left=0;bottom=0;right=0;align=left;spacingLeft=6;overflow=hidden;whiteSpace=wrap;html=1;" parent="ZriuE2fvEDxk47T1wIl6-24" vertex="1">
          <mxGeometry x="40" width="340" height="30" as="geometry">
            <mxRectangle width="340" height="30" as="alternateBounds" />
          </mxGeometry>
        </mxCell>
        <mxCell id="jC6RWO9CnTox5zK2VbaE-1" value="" style="shape=tableRow;horizontal=0;startSize=0;swimlaneHead=0;swimlaneBody=0;fillColor=none;collapsible=0;dropTarget=0;points=[[0,0.5],[1,0.5]];portConstraint=eastwest;top=0;left=0;right=0;bottom=0;" parent="ZriuE2fvEDxk47T1wIl6-20" vertex="1">
          <mxGeometry y="90" width="380" height="30" as="geometry" />
        </mxCell>
        <mxCell id="jC6RWO9CnTox5zK2VbaE-2" value="" style="shape=partialRectangle;connectable=0;fillColor=none;top=0;left=0;bottom=0;right=0;editable=1;overflow=hidden;" parent="jC6RWO9CnTox5zK2VbaE-1" vertex="1">
          <mxGeometry width="40" height="30" as="geometry">
            <mxRectangle width="40" height="30" as="alternateBounds" />
          </mxGeometry>
        </mxCell>
        <mxCell id="jC6RWO9CnTox5zK2VbaE-3" value="chave_pix VARCHAR(255) NOT NULL" style="shape=partialRectangle;connectable=0;fillColor=none;top=0;left=0;bottom=0;right=0;align=left;spacingLeft=6;overflow=hidden;" parent="jC6RWO9CnTox5zK2VbaE-1" vertex="1">
          <mxGeometry x="40" width="340" height="30" as="geometry">
            <mxRectangle width="340" height="30" as="alternateBounds" />
          </mxGeometry>
        </mxCell>
        <mxCell id="ZriuE2fvEDxk47T1wIl6-27" value="" style="shape=tableRow;horizontal=0;startSize=0;swimlaneHead=0;swimlaneBody=0;fillColor=none;collapsible=0;dropTarget=0;points=[[0,0.5],[1,0.5]];portConstraint=eastwest;top=0;left=0;right=0;bottom=0;" parent="ZriuE2fvEDxk47T1wIl6-20" vertex="1">
          <mxGeometry y="120" width="380" height="30" as="geometry" />
        </mxCell>
        <mxCell id="ZriuE2fvEDxk47T1wIl6-28" value="" style="shape=partialRectangle;connectable=0;fillColor=none;top=0;left=0;bottom=0;right=0;editable=1;overflow=hidden;whiteSpace=wrap;html=1;" parent="ZriuE2fvEDxk47T1wIl6-27" vertex="1">
          <mxGeometry width="40" height="30" as="geometry">
            <mxRectangle width="40" height="30" as="alternateBounds" />
          </mxGeometry>
        </mxCell>
        <mxCell id="ZriuE2fvEDxk47T1wIl6-29" value="img_rg VARCHAR(255) NOT NULL" style="shape=partialRectangle;connectable=0;fillColor=none;top=0;left=0;bottom=0;right=0;align=left;spacingLeft=6;overflow=hidden;whiteSpace=wrap;html=1;" parent="ZriuE2fvEDxk47T1wIl6-27" vertex="1">
          <mxGeometry x="40" width="340" height="30" as="geometry">
            <mxRectangle width="340" height="30" as="alternateBounds" />
          </mxGeometry>
        </mxCell>
        <mxCell id="ZriuE2fvEDxk47T1wIl6-30" value="" style="shape=tableRow;horizontal=0;startSize=0;swimlaneHead=0;swimlaneBody=0;fillColor=none;collapsible=0;dropTarget=0;points=[[0,0.5],[1,0.5]];portConstraint=eastwest;top=0;left=0;right=0;bottom=0;" parent="ZriuE2fvEDxk47T1wIl6-20" vertex="1">
          <mxGeometry y="150" width="380" height="30" as="geometry" />
        </mxCell>
        <mxCell id="ZriuE2fvEDxk47T1wIl6-31" value="" style="shape=partialRectangle;connectable=0;fillColor=none;top=0;left=0;bottom=0;right=0;editable=1;overflow=hidden;whiteSpace=wrap;html=1;" parent="ZriuE2fvEDxk47T1wIl6-30" vertex="1">
          <mxGeometry width="40" height="30" as="geometry">
            <mxRectangle width="40" height="30" as="alternateBounds" />
          </mxGeometry>
        </mxCell>
        <mxCell id="ZriuE2fvEDxk47T1wIl6-32" value="status_avaliacao ENUM(&#39;aprovado&#39;,&#39;reprovado&#39;) NOT NULL" style="shape=partialRectangle;connectable=0;fillColor=none;top=0;left=0;bottom=0;right=0;align=left;spacingLeft=6;overflow=hidden;whiteSpace=wrap;html=1;" parent="ZriuE2fvEDxk47T1wIl6-30" vertex="1">
          <mxGeometry x="40" width="340" height="30" as="geometry">
            <mxRectangle width="340" height="30" as="alternateBounds" />
          </mxGeometry>
        </mxCell>
        <mxCell id="ZriuE2fvEDxk47T1wIl6-94" style="edgeStyle=orthogonalEdgeStyle;rounded=0;orthogonalLoop=1;jettySize=auto;html=1;endArrow=ERoneToMany;endFill=0;startArrow=ERmandOne;startFill=0;" parent="1" source="ZriuE2fvEDxk47T1wIl6-20" target="DzorAXnXF1hcaJ-7rGOe-1" edge="1">
          <mxGeometry relative="1" as="geometry">
            <Array as="points">
              <mxPoint x="440" y="850" />
              <mxPoint x="440" y="850" />
            </Array>
          </mxGeometry>
        </mxCell>
        <mxCell id="c197EIQmSS-JaKpMpAPW-1" style="edgeStyle=orthogonalEdgeStyle;rounded=0;orthogonalLoop=1;jettySize=auto;html=1;startArrow=ERmandOne;startFill=0;endArrow=ERoneToMany;endFill=0;" parent="1" source="nTdyRkKhcf-GtTSsgD9O-1" target="DzorAXnXF1hcaJ-7rGOe-1" edge="1">
          <mxGeometry relative="1" as="geometry">
            <Array as="points">
              <mxPoint x="1190" y="1520" />
              <mxPoint x="1190" y="880" />
            </Array>
            <mxPoint x="820" y="1555" as="sourcePoint" />
            <mxPoint x="800" y="1040" as="targetPoint" />
          </mxGeometry>
        </mxCell>
        <mxCell id="TafMJiz-0NFogvrLmb69-22" value="endereco" style="shape=table;startSize=30;container=1;collapsible=1;childLayout=tableLayout;fixedRows=1;rowLines=0;fontStyle=1;align=center;resizeLast=1;html=1;" parent="1" vertex="1">
          <mxGeometry x="415" y="10" width="405" height="270" as="geometry">
            <mxRectangle x="365" y="140" width="80" height="30" as="alternateBounds" />
          </mxGeometry>
        </mxCell>
        <mxCell id="TafMJiz-0NFogvrLmb69-23" value="" style="shape=tableRow;horizontal=0;startSize=0;swimlaneHead=0;swimlaneBody=0;fillColor=none;collapsible=0;dropTarget=0;points=[[0,0.5],[1,0.5]];portConstraint=eastwest;top=0;left=0;right=0;bottom=1;" parent="TafMJiz-0NFogvrLmb69-22" vertex="1">
          <mxGeometry y="30" width="405" height="30" as="geometry" />
        </mxCell>
        <mxCell id="TafMJiz-0NFogvrLmb69-24" value="PK" style="shape=partialRectangle;connectable=0;fillColor=none;top=0;left=0;bottom=0;right=0;fontStyle=1;overflow=hidden;whiteSpace=wrap;html=1;" parent="TafMJiz-0NFogvrLmb69-23" vertex="1">
          <mxGeometry width="30" height="30" as="geometry">
            <mxRectangle width="30" height="30" as="alternateBounds" />
          </mxGeometry>
        </mxCell>
        <mxCell id="TafMJiz-0NFogvrLmb69-25" value="id_endereco" style="shape=partialRectangle;connectable=0;fillColor=none;top=0;left=0;bottom=0;right=0;align=left;spacingLeft=6;fontStyle=5;overflow=hidden;whiteSpace=wrap;html=1;" parent="TafMJiz-0NFogvrLmb69-23" vertex="1">
          <mxGeometry x="30" width="375" height="30" as="geometry">
            <mxRectangle width="375" height="30" as="alternateBounds" />
          </mxGeometry>
        </mxCell>
        <mxCell id="YDmRxbR3ZR2h-hErKQVA-3" value="" style="shape=tableRow;horizontal=0;startSize=0;swimlaneHead=0;swimlaneBody=0;fillColor=none;collapsible=0;dropTarget=0;points=[[0,0.5],[1,0.5]];portConstraint=eastwest;top=0;left=0;right=0;bottom=0;" parent="TafMJiz-0NFogvrLmb69-22" vertex="1">
          <mxGeometry y="60" width="405" height="30" as="geometry" />
        </mxCell>
        <mxCell id="YDmRxbR3ZR2h-hErKQVA-4" value="" style="shape=partialRectangle;connectable=0;fillColor=none;top=0;left=0;bottom=0;right=0;editable=1;overflow=hidden;" parent="YDmRxbR3ZR2h-hErKQVA-3" vertex="1">
          <mxGeometry width="30" height="30" as="geometry">
            <mxRectangle width="30" height="30" as="alternateBounds" />
          </mxGeometry>
        </mxCell>
        <mxCell id="YDmRxbR3ZR2h-hErKQVA-5" value="estado VARCHAR(100) NOT NULL" style="shape=partialRectangle;connectable=0;fillColor=none;top=0;left=0;bottom=0;right=0;align=left;spacingLeft=6;overflow=hidden;" parent="YDmRxbR3ZR2h-hErKQVA-3" vertex="1">
          <mxGeometry x="30" width="375" height="30" as="geometry">
            <mxRectangle width="375" height="30" as="alternateBounds" />
          </mxGeometry>
        </mxCell>
        <mxCell id="TafMJiz-0NFogvrLmb69-26" value="" style="shape=tableRow;horizontal=0;startSize=0;swimlaneHead=0;swimlaneBody=0;fillColor=none;collapsible=0;dropTarget=0;points=[[0,0.5],[1,0.5]];portConstraint=eastwest;top=0;left=0;right=0;bottom=0;" parent="TafMJiz-0NFogvrLmb69-22" vertex="1">
          <mxGeometry y="90" width="405" height="30" as="geometry" />
        </mxCell>
        <mxCell id="TafMJiz-0NFogvrLmb69-27" value="" style="shape=partialRectangle;connectable=0;fillColor=none;top=0;left=0;bottom=0;right=0;editable=1;overflow=hidden;whiteSpace=wrap;html=1;" parent="TafMJiz-0NFogvrLmb69-26" vertex="1">
          <mxGeometry width="30" height="30" as="geometry">
            <mxRectangle width="30" height="30" as="alternateBounds" />
          </mxGeometry>
        </mxCell>
        <mxCell id="TafMJiz-0NFogvrLmb69-28" value="cidade VARCHAR(100) NOT NULL" style="shape=partialRectangle;connectable=0;fillColor=none;top=0;left=0;bottom=0;right=0;align=left;spacingLeft=6;overflow=hidden;whiteSpace=wrap;html=1;" parent="TafMJiz-0NFogvrLmb69-26" vertex="1">
          <mxGeometry x="30" width="375" height="30" as="geometry">
            <mxRectangle width="375" height="30" as="alternateBounds" />
          </mxGeometry>
        </mxCell>
        <mxCell id="TafMJiz-0NFogvrLmb69-29" value="" style="shape=tableRow;horizontal=0;startSize=0;swimlaneHead=0;swimlaneBody=0;fillColor=none;collapsible=0;dropTarget=0;points=[[0,0.5],[1,0.5]];portConstraint=eastwest;top=0;left=0;right=0;bottom=0;" parent="TafMJiz-0NFogvrLmb69-22" vertex="1">
          <mxGeometry y="120" width="405" height="30" as="geometry" />
        </mxCell>
        <mxCell id="TafMJiz-0NFogvrLmb69-30" value="" style="shape=partialRectangle;connectable=0;fillColor=none;top=0;left=0;bottom=0;right=0;editable=1;overflow=hidden;" parent="TafMJiz-0NFogvrLmb69-29" vertex="1">
          <mxGeometry width="30" height="30" as="geometry">
            <mxRectangle width="30" height="30" as="alternateBounds" />
          </mxGeometry>
        </mxCell>
        <mxCell id="TafMJiz-0NFogvrLmb69-31" value="bairro VARCHAR(150) NOT NULL" style="shape=partialRectangle;connectable=0;fillColor=none;top=0;left=0;bottom=0;right=0;align=left;spacingLeft=6;overflow=hidden;" parent="TafMJiz-0NFogvrLmb69-29" vertex="1">
          <mxGeometry x="30" width="375" height="30" as="geometry">
            <mxRectangle width="375" height="30" as="alternateBounds" />
          </mxGeometry>
        </mxCell>
        <mxCell id="TafMJiz-0NFogvrLmb69-32" value="" style="shape=tableRow;horizontal=0;startSize=0;swimlaneHead=0;swimlaneBody=0;fillColor=none;collapsible=0;dropTarget=0;points=[[0,0.5],[1,0.5]];portConstraint=eastwest;top=0;left=0;right=0;bottom=0;" parent="TafMJiz-0NFogvrLmb69-22" vertex="1">
          <mxGeometry y="150" width="405" height="30" as="geometry" />
        </mxCell>
        <mxCell id="TafMJiz-0NFogvrLmb69-33" value="" style="shape=partialRectangle;connectable=0;fillColor=none;top=0;left=0;bottom=0;right=0;editable=1;overflow=hidden;whiteSpace=wrap;html=1;" parent="TafMJiz-0NFogvrLmb69-32" vertex="1">
          <mxGeometry width="30" height="30" as="geometry">
            <mxRectangle width="30" height="30" as="alternateBounds" />
          </mxGeometry>
        </mxCell>
        <mxCell id="TafMJiz-0NFogvrLmb69-34" value="logradouro VARCHAR(150) NOT NULL" style="shape=partialRectangle;connectable=0;fillColor=none;top=0;left=0;bottom=0;right=0;align=left;spacingLeft=6;overflow=hidden;whiteSpace=wrap;html=1;" parent="TafMJiz-0NFogvrLmb69-32" vertex="1">
          <mxGeometry x="30" width="375" height="30" as="geometry">
            <mxRectangle width="375" height="30" as="alternateBounds" />
          </mxGeometry>
        </mxCell>
        <mxCell id="TafMJiz-0NFogvrLmb69-35" value="" style="shape=tableRow;horizontal=0;startSize=0;swimlaneHead=0;swimlaneBody=0;fillColor=none;collapsible=0;dropTarget=0;points=[[0,0.5],[1,0.5]];portConstraint=eastwest;top=0;left=0;right=0;bottom=0;" parent="TafMJiz-0NFogvrLmb69-22" vertex="1">
          <mxGeometry y="180" width="405" height="30" as="geometry" />
        </mxCell>
        <mxCell id="TafMJiz-0NFogvrLmb69-36" value="" style="shape=partialRectangle;connectable=0;fillColor=none;top=0;left=0;bottom=0;right=0;editable=1;overflow=hidden;whiteSpace=wrap;html=1;" parent="TafMJiz-0NFogvrLmb69-35" vertex="1">
          <mxGeometry width="30" height="30" as="geometry">
            <mxRectangle width="30" height="30" as="alternateBounds" />
          </mxGeometry>
        </mxCell>
        <mxCell id="TafMJiz-0NFogvrLmb69-37" value="numero_casa INTEGER NOT NULL" style="shape=partialRectangle;connectable=0;fillColor=none;top=0;left=0;bottom=0;right=0;align=left;spacingLeft=6;overflow=hidden;whiteSpace=wrap;html=1;" parent="TafMJiz-0NFogvrLmb69-35" vertex="1">
          <mxGeometry x="30" width="375" height="30" as="geometry">
            <mxRectangle width="375" height="30" as="alternateBounds" />
          </mxGeometry>
        </mxCell>
        <mxCell id="TafMJiz-0NFogvrLmb69-38" value="" style="shape=tableRow;horizontal=0;startSize=0;swimlaneHead=0;swimlaneBody=0;fillColor=none;collapsible=0;dropTarget=0;points=[[0,0.5],[1,0.5]];portConstraint=eastwest;top=0;left=0;right=0;bottom=0;" parent="TafMJiz-0NFogvrLmb69-22" vertex="1">
          <mxGeometry y="210" width="405" height="30" as="geometry" />
        </mxCell>
        <mxCell id="TafMJiz-0NFogvrLmb69-39" value="" style="shape=partialRectangle;connectable=0;fillColor=none;top=0;left=0;bottom=0;right=0;editable=1;overflow=hidden;" parent="TafMJiz-0NFogvrLmb69-38" vertex="1">
          <mxGeometry width="30" height="30" as="geometry">
            <mxRectangle width="30" height="30" as="alternateBounds" />
          </mxGeometry>
        </mxCell>
        <mxCell id="TafMJiz-0NFogvrLmb69-40" value="cep VARCHAR(50) NOT NULL" style="shape=partialRectangle;connectable=0;fillColor=none;top=0;left=0;bottom=0;right=0;align=left;spacingLeft=6;overflow=hidden;" parent="TafMJiz-0NFogvrLmb69-38" vertex="1">
          <mxGeometry x="30" width="375" height="30" as="geometry">
            <mxRectangle width="375" height="30" as="alternateBounds" />
          </mxGeometry>
        </mxCell>
        <mxCell id="TafMJiz-0NFogvrLmb69-59" value="" style="shape=tableRow;horizontal=0;startSize=0;swimlaneHead=0;swimlaneBody=0;fillColor=none;collapsible=0;dropTarget=0;points=[[0,0.5],[1,0.5]];portConstraint=eastwest;top=0;left=0;right=0;bottom=0;" parent="TafMJiz-0NFogvrLmb69-22" vertex="1">
          <mxGeometry y="240" width="405" height="30" as="geometry" />
        </mxCell>
        <mxCell id="TafMJiz-0NFogvrLmb69-60" value="FK" style="shape=partialRectangle;connectable=0;fillColor=none;top=0;left=0;bottom=0;right=0;fontStyle=0;overflow=hidden;whiteSpace=wrap;html=1;" parent="TafMJiz-0NFogvrLmb69-59" vertex="1">
          <mxGeometry width="30" height="30" as="geometry">
            <mxRectangle width="30" height="30" as="alternateBounds" />
          </mxGeometry>
        </mxCell>
        <mxCell id="TafMJiz-0NFogvrLmb69-61" value="id_usuario" style="shape=partialRectangle;connectable=0;fillColor=none;top=0;left=0;bottom=0;right=0;align=left;spacingLeft=6;fontStyle=0;overflow=hidden;whiteSpace=wrap;html=1;" parent="TafMJiz-0NFogvrLmb69-59" vertex="1">
          <mxGeometry x="30" width="375" height="30" as="geometry">
            <mxRectangle width="375" height="30" as="alternateBounds" />
          </mxGeometry>
        </mxCell>
        <mxCell id="TafMJiz-0NFogvrLmb69-62" value="" style="fontSize=12;html=1;endArrow=ERmandOne;endFill=0;rounded=0;edgeStyle=elbowEdgeStyle;startArrow=ERoneToMany;startFill=0;" parent="1" source="ZriuE2fvEDxk47T1wIl6-1" target="TafMJiz-0NFogvrLmb69-22" edge="1">
          <mxGeometry width="100" height="100" relative="1" as="geometry">
            <mxPoint x="602.5" y="530" as="sourcePoint" />
            <mxPoint x="602.5" y="-40" as="targetPoint" />
          </mxGeometry>
        </mxCell>
      </root>
    </mxGraphModel>
  </diagram>
</mxfile>
